<?xml version="1.0" standalone="no"?>
<!DOCTYPE svg PUBLIC "-//W3C//DTD SVG 20010904//EN"
 "http://www.w3.org/TR/2001/REC-SVG-20010904/DTD/svg10.dtd">
<svg version="1.0" xmlns="http://www.w3.org/2000/svg"
 width="400.000000pt" height="400.000000pt" viewBox="0 0 400.000000 400.000000"
 preserveAspectRatio="xMidYMid meet">
<metadata>
Created by potrace 1.14, written by Peter Selinger 2001-2017
</metadata>
<g transform="translate(0.000000,400.000000) scale(0.100000,-0.100000)"
fill="#000000" stroke="none">
<path d="M1780 3150 c-231 -47 -423 -149 -586 -314 -130 -131 -227 -284 -274
-431 -12 -38 -26 -80 -31 -93 -5 -13 -16 -80 -25 -150 -39 -303 42 -596 236
-852 325 -428 906 -570 1395 -341 135 63 310 194 367 274 l22 30 -25 -7 c-261
-78 -549 -88 -772 -26 -173 48 -334 162 -412 291 -110 179 -146 464 -85 664
68 220 249 413 438 465 87 24 151 25 223 4 93 -28 168 -97 221 -202 28 -57 31
-71 31 -160 0 -218 -70 -384 -236 -559 -48 -50 -207 -177 -254 -202 -48 -25
-25 -33 75 -26 384 27 690 174 819 393 113 191 130 421 48 648 -39 109 -55
139 -109 219 -129 191 -358 328 -635 379 -111 21 -319 19 -431 -4z"/>
</g>
</svg>
